<svg xmlns="http://www.w3.org/2000/svg" width="512" height="512" viewBox="0 0 512 512" style="enable-background:new 0 0 512 512" xml:space="preserve">
  <path fill="#66b3ff" d="M436 181H76c-8.401 0-15 6.599-15 15v270c0 4.2 1.8 7.8 4.2 10.8L166 436h120l160.8 40.8c2.4-3 4.2-6.6 4.2-10.8V196c0-8.401-6.599-15-15-15z" data-original="#66b3ff"/>
  <path fill="#4d88ff" d="M436 181H256v255h30l160.8 40.8c2.4-3 4.2-6.6 4.2-10.8V196c0-8.401-6.599-15-15-15z" data-original="#4d88ff"/>
  <path fill="#ade65c" d="M446.8 476.8c-3 2.4-6.6 4.2-10.8 4.2H76c-4.2 0-7.8-1.8-10.8-4.2l90.193-90.193c5.858-5.858 15.355-5.858 21.213 0l8.787 8.787c5.858 5.858 15.355 5.858 21.213 0l68.787-68.787c5.858-5.858 15.355-5.858 21.213 0z" data-original="#ade65c"/>
  <path fill="#ffcb66" d="M166 331c-24.814 0-45-20.186-45-45s20.186-45 45-45 45 20.186 45 45-20.186 45-45 45z" data-original="#ffcb66"/>
  <path fill="#7acc52" d="M275.393 326.605 256 345.998V481h180c4.2 0 7.8-1.8 10.8-4.2L296.607 326.605c-5.859-5.857-15.355-5.857-21.214 0z" data-original="#7acc52"/>
</svg>
